<svg version="1.1" viewBox="0.0 0.0 128.0 163.0" fill="none" stroke="none" stroke-linecap="square" stroke-miterlimit="10" xmlns:xlink="http://www.w3.org/1999/xlink" xmlns="http://www.w3.org/2000/svg"><clipPath id="p.0"><path d="m0 0l128.0 0l0 163.0l-128.0 0l0 -163.0z" clip-rule="nonzero"/></clipPath><g clip-path="url(#p.0)"><path fill="#000000" fill-opacity="0.0" d="m0 0l128.0 0l0 163.0l-128.0 0z" fill-rule="evenodd"/><path fill="#000000" fill-opacity="0.0" d="m102.77129 155.94128l-77.54259 0c-4.7656403 0 -9.33609 -1.8931427 -12.705906 -5.2629547c-3.3698149 -3.369812 -5.262958 -7.940277 -5.262958 -12.705902l0 -89.84216c0 -5.226135E-4 4.234314E-4 -9.460449E-4 9.455681E-4 -9.460449E-4l113.47937 9.460449E-4l0 0c5.187988E-4 0 9.460449E-4 4.234314E-4 9.460449E-4 9.460449E-4l-9.460449E-4 89.84122l0 0c0 9.92392 -8.044937 17.968857 -17.968864 17.968857z" fill-rule="evenodd"/><path stroke="#000000" stroke-width="8.0" stroke-linejoin="round" stroke-linecap="butt" d="m102.77129 155.94128l-77.54259 0c-4.7656403 0 -9.33609 -1.8931427 -12.705906 -5.2629547c-3.3698149 -3.369812 -5.262958 -7.940277 -5.262958 -12.705902l0 -89.84216c0 -5.226135E-4 4.234314E-4 -9.460449E-4 9.455681E-4 -9.460449E-4l113.47937 9.460449E-4l0 0c5.187988E-4 0 9.460449E-4 4.234314E-4 9.460449E-4 9.460449E-4l-9.460449E-4 89.84122l0 0c0 9.92392 -8.044937 17.968857 -17.968864 17.968857z" fill-rule="evenodd"/><path fill="#000000" fill-opacity="0.0" d="m55.088894 7.058716l17.795277 0l0 0c5.446335 0 10.669601 2.1635485 14.520744 6.0146894c3.8511353 3.85114 6.0146866 9.074409 6.0146866 14.520743l0 20.535433c0 2.708435E-4 -2.2125244E-4 4.9209595E-4 -4.8828125E-4 4.9209595E-4l-58.865654 -4.9209595E-4l0 0c-2.708435E-4 0 -4.9209595E-4 -2.1743774E-4 -4.9209595E-4 -4.8828125E-4l4.9209595E-4 -20.534945l0 0c0 -11.341406 9.194027 -20.535433 20.535435 -20.535433z" fill-rule="evenodd"/><path stroke="#000000" stroke-width="8.0" stroke-linejoin="round" stroke-linecap="butt" d="m55.088894 7.058716l17.795277 0l0 0c5.446335 0 10.669601 2.1635485 14.520744 6.0146894c3.8511353 3.85114 6.0146866 9.074409 6.0146866 14.520743l0 20.535433c0 2.708435E-4 -2.2125244E-4 4.9209595E-4 -4.8828125E-4 4.9209595E-4l-58.865654 -4.9209595E-4l0 0c-2.708435E-4 0 -4.9209595E-4 -2.1743774E-4 -4.9209595E-4 -4.8828125E-4l4.9209595E-4 -20.534945l0 0c0 -11.341406 9.194027 -20.535433 20.535435 -20.535433z" fill-rule="evenodd"/></g></svg>