<?xml version="1.0" encoding="UTF-8"?>
<svg version="1.1" xmlns="http://www.w3.org/2000/svg" xmlns:xlink="http://www.w3.org/1999/xlink" fill="#000" viewBox="0.0 0.0 17.001 21.4092">
 <g>
  <path d="M0 16.7035C0 18.5979 0.973926 19.5583 2.87871 19.5583L14.3153 19.5583C16.0271 19.5583 17.001 18.582 17.001 16.7035L17.001 6.48106C17.001 4.60254 16.0203 3.62627 14.1223 3.62627L12.366 3.62627C12.3232 1.71475 10.7087 0 8.49863 0C6.28555 0 4.67773 1.71475 4.62822 3.62627L2.87871 3.62627C0.973926 3.62627 0 4.58672 0 6.48106ZM1.20899 16.6436L1.20899 6.54102C1.20899 5.41338 1.80059 4.83526 2.90127 4.83526L14.093 4.83526C15.1718 4.83526 15.795 5.41338 15.795 6.54102L15.795 16.6436C15.795 17.7712 15.1718 18.3493 14.286 18.3493L2.90127 18.3493C1.80059 18.3493 1.20899 17.7712 1.20899 16.6436ZM5.83721 3.62627C5.87696 2.32647 6.92793 1.15137 8.49863 1.15137C10.0663 1.15137 11.124 2.32647 11.157 3.62627Z"/>
 </g>
</svg>
