<?xml version="1.0" encoding="UTF-8"?>
<svg version="1.1" xmlns:xlink="http://www.w3.org/1999/xlink" xmlns="http://www.w3.org/2000/svg" fill="#fff" viewBox="0.0 0.0 40.0 40.0">
    <clipPath id="p.0">
        <path d="m0 0l40.0 0l0 40.0l-40.0 0l0 -40.0z" clip-rule="nonzero"/>
    </clipPath>
    <g clip-path="url(#p.0)">
        <path fill-opacity="0.0824" d="m27.970732 3.236265l0 0c0.41558647 -0.71428895 1.330637 -0.9549041 2.0438232 -0.5374291l0 0l0 0c0.34248352 0.20047879 0.59166145 0.5290079 0.6927166 0.9133148c0.101055145 0.38430715 0.045707703 0.7929115 -0.1538639 1.1359253l-3.534399 6.0747485c-0.41558647 0.7142887 -1.330637 0.9549036 -2.0438232 0.53742886l0 0l0 0c-0.71318626 -0.41747475 -0.95443916 -1.3349514 -0.5388527 -2.04924z" fill-rule="evenodd"/>
        <path fill-opacity="0.1686" d="m35.29022 9.476876l0 0c0.7142906 -0.41558647 1.6317673 -0.17433357 2.04924 0.5388527l0 0l0 0c0.2004776 0.34248447 0.256485 0.75022125 0.15569687 1.1335125c-0.10078812 0.38329124 -0.35011292 0.7107401 -0.6931267 0.9103117l-6.074747 3.534399c-0.7142887 0.41558647 -1.6317654 0.17433357 -2.04924 -0.5388527l0 0l0 0c-0.41747475 -0.7131872 -0.1768589 -1.6282377 0.5374298 -2.0438242z" fill-rule="evenodd"/>
        <path fill-opacity="0.251" d="m38.51971 18.527752l0 0c0.8175545 0 1.4803123 0.6627598 1.4803123 1.4803143l0 0l0 0c0 0.39260483 -0.15596008 0.7691288 -0.43357468 1.0467415c-0.27761078 0.2776127 -0.65413666 0.43357468 -1.0467377 0.43357468l-7.0236244 0c-0.8175545 0 -1.4803143 -0.6627598 -1.4803143 -1.4803162l0 0l0 0c0 -0.8175545 0.6627598 -1.4803143 1.4803143 -1.4803143z" fill-rule="evenodd"/>
        <path fill-opacity="0.3333" d="m36.76308 27.974268l0 0c0.7142906 0.41558647 0.95490646 1.330637 0.5374298 2.0438232l0 0l0 0c-0.2004776 0.34248543 -0.52900696 0.59166336 -0.9133148 0.6927166c-0.38430786 0.101055145 -0.7929115 0.04570961 -1.1359253 -0.153862l-6.074747 -3.534399c-0.7142906 -0.41558647 -0.95490456 -1.3306389 -0.5374298 -2.0438251l0 0l0 0c0.41747475 -0.71318626 1.3349514 -0.95443916 2.04924 -0.5388527z" fill-rule="evenodd"/>
        <path fill-opacity="0.4157" d="m30.522205 35.29385l0 0c0.41558647 0.7142868 0.17433357 1.6317635 -0.5388527 2.04924l0 0l0 0c-0.34248352 0.2004776 -0.75022125 0.256485 -1.1335125 0.15569687c-0.38329124 -0.10078812 -0.71073914 -0.35011292 -0.91031075 -0.6931267l-3.534399 -6.074749c-0.41558647 -0.7142887 -0.17433357 -1.6317635 0.5388527 -2.04924l0 0l0 0c0.71318626 -0.41747475 1.6282368 -0.1768589 2.0438232 0.5374298z" fill-rule="evenodd"/>
        <path fill-opacity="0.502" d="m18.525023 31.481665l0 0c0 -0.8175564 0.6627598 -1.4803162 1.4803143 -1.4803162l0 0l0 0c0.39260483 0 0.7691269 0.15596199 1.0467415 0.43357468c0.2776127 0.2776127 0.43357277 0.65413666 0.43357277 1.0467415l0 7.0236225c0 0.8175545 -0.6627598 1.4803123 -1.4803143 1.4803123l0 0l0 0c-0.8175545 0 -1.4803143 -0.6627579 -1.4803143 -1.4803123z" fill-rule="evenodd"/>
        <path fill-opacity="0.5843" d="m12.970057 29.218195l0 0c0.41558552 -0.7142887 1.330637 -0.95490265 2.0438242 -0.5374279l0 0l0 0c0.34248352 0.2004776 0.59166145 0.52900696 0.69271564 0.9133148c0.101055145 0.38430595 0.045708656 0.7929115 -0.15386295 1.1359253l-3.534399 6.074749c-0.41558647 0.7142868 -1.3306379 0.95490265 -2.0438242 0.537426l0 0l0 0c-0.71318626 -0.41747284 -0.95443916 -1.3349495 -0.5388527 -2.0492363z" fill-rule="evenodd"/>
        <path fill-opacity="0.6667" d="m9.308289 24.47755l0 0c0.7142887 -0.41558647 1.6317644 -0.17433357 2.0492392 0.5388527l0 0l0 0c0.20047855 0.34248543 0.256485 0.75022125 0.15569782 1.1335125c-0.10078812 0.38329124 -0.35011292 0.71074104 -0.6931267 0.91031265l-6.074748 3.534399c-0.7142892 0.41558647 -1.6317649 0.17433357 -2.04924 -0.5388527l0 0l0 0c-0.417475 -0.7131882 -0.17685986 -1.6282387 0.5374291 -2.0438251z" fill-rule="evenodd"/>
        <path fill-opacity="0.749" d="m8.518359 18.527752l0 0c0.8175554 0 1.4803152 0.6627598 1.4803152 1.4803143l0 0l0 0c0 0.39260483 -0.15596104 0.7691288 -0.43357468 1.0467415c-0.2776127 0.2776127 -0.65413666 0.43357468 -1.0467405 0.43357468l-7.023622 0c-0.81755537 0 -1.480315 -0.6627598 -1.480315 -1.4803162l0 0l0 0c0 -0.8175545 0.6627596 -1.4803143 1.480315 -1.4803143z" fill-rule="evenodd"/>
        <path fill-opacity="0.8314" d="m10.781151 12.973593l0 0c0.7142887 0.41558647 0.9549036 1.3306379 0.53742886 2.0438242l0 0l0 0c-0.20047855 0.34248447 -0.5290079 0.59166145 -0.9133148 0.6927166c-0.3843069 0.10105419 -0.7929115 0.045707703 -1.1359253 -0.15386295l-6.074748 -3.5344c-0.71428895 -0.41558552 -0.9549041 -1.330637 -0.5374291 -2.0438232l0 0l0 0c0.41747522 -0.7131872 1.3349512 -0.9544401 2.0492399 -0.53885365z" fill-rule="evenodd"/>
        <path fill-opacity="0.9176" d="m15.521531 9.311918l0 0c0.41558647 0.7142887 0.17433357 1.6317644 -0.5388527 2.04924l0 0l0 0c-0.34248447 0.20047855 -0.75022125 0.25648403 -1.1335125 0.15569687c-0.38329124 -0.10078812 -0.7107401 -0.35011292 -0.9103117 -0.6931257l-3.534399 -6.074749c-0.41558647 -0.7142887 -0.17433357 -1.6317647 0.5388527 -2.0492399l0 0l0 0c0.7131872 -0.417475 1.6282377 -0.17685986 2.0438242 0.5374291z" fill-rule="evenodd"/>
        <path fill-opacity="1.0" d="m18.525023 1.480315l0 0c0 -0.81755537 0.6627598 -1.480315 1.4803143 -1.480315l0 0l0 0c0.39260483 0 0.7691269 0.1559613 1.0467415 0.4335742c0.2776127 0.27761292 0.43357277 0.6541368 0.43357277 1.0467408l0 7.0236216c0 0.8175554 -0.6627598 1.4803152 -1.4803143 1.4803152l0 0l0 0c-0.8175545 0 -1.4803143 -0.6627598 -1.4803143 -1.4803152z" fill-rule="evenodd"/>
    </g>
</svg>