<svg version="1.1" viewBox="0.0 0.0 40.0 40.0" fill="none" stroke="none" stroke-linecap="square" stroke-miterlimit="10" xmlns:xlink="http://www.w3.org/1999/xlink" xmlns="http://www.w3.org/2000/svg"><clipPath id="p.0"><path d="m0 0l40.0 0l0 40.0l-40.0 0l0 -40.0z" clip-rule="nonzero"/></clipPath><g clip-path="url(#p.0)"><path fill="#000000" fill-opacity="0.0" d="m0 0l40.0 0l0 40.0l-40.0 0z" fill-rule="evenodd"/><path fill="#000000" fill-opacity="0.0" d="m1.8008074 16.240425l0 0c0 -7.9755135 6.4654307 -14.440945 14.440946 -14.440945l0 0c3.829977 0 7.503088 1.5214523 10.21129 4.229655c2.7082024 2.7082024 4.2296543 6.3813133 4.2296543 10.21129l0 0c0 7.9755135 -6.465431 14.440945 -14.440945 14.440945l0 0c-7.9755144 0 -14.440946 -6.465431 -14.440946 -14.440945z" fill-rule="evenodd"/><path stroke="#c0c0c0" stroke-width="3.0" stroke-linejoin="round" stroke-linecap="butt" d="m1.8008074 16.240425l0 0c0 -7.9755135 6.4654307 -14.440945 14.440946 -14.440945l0 0c3.829977 0 7.503088 1.5214523 10.21129 4.229655c2.7082024 2.7082024 4.2296543 6.3813133 4.2296543 10.21129l0 0c0 7.9755135 -6.465431 14.440945 -14.440945 14.440945l0 0c-7.9755144 0 -14.440946 -6.465431 -14.440946 -14.440945z" fill-rule="evenodd"/><path fill="#000000" fill-opacity="0.0" d="m26.453043 26.451715l12.251966 12.251966" fill-rule="evenodd"/><path stroke="#c0c0c0" stroke-width="3.0" stroke-linejoin="round" stroke-linecap="butt" d="m26.453043 26.451715l12.251966 12.251966" fill-rule="evenodd"/></g></svg>