<?xml version="1.0" encoding="UTF-8"?>
<svg version="1.1" xmlns:xlink="http://www.w3.org/1999/xlink" xmlns="http://www.w3.org/2000/svg" fill="#000" viewBox="0.0 0.0 32.0 32.0">
    <g>
        <path d="m4.6593637 22.255749l0 -10.312501l-3.671875 0l0 -2.09375l9.859375 0l0 2.09375l-3.671875 0l0 10.312501l-2.515625 0zm10.147217 -12.406251l0 4.5625q1.15625 -1.34375 2.750001 -1.34375q0.828125 0 1.484375 0.3125q0.65625 0.296875 0.984375 0.78125q0.34375 0.46875 0.46875 1.046875q0.125 0.5625 0.125 1.781251l0 5.265625l-2.375 0l0 -4.75q0 -1.40625 -0.140625 -1.781251q-0.140625 -0.390625 -0.484375 -0.609375q-0.34375 -0.234375 -0.859375 -0.234375q-0.59375 0 -1.062501 0.296875q-0.453125 0.28125 -0.671875 0.85937595q-0.21875 0.578125 -0.21875 1.71875l0 4.5l-2.375 0l0 -12.406251l2.375 0zm13.428468 9.546876l2.359375 0.390625q-0.453125 1.3125 -1.4375 2.0q-0.984375 0.671875 -2.46875 0.671875q-2.34375 0 -3.46875 -1.53125q-0.890625 -1.234375 -0.890625 -3.09375q0 -2.234376 1.171875 -3.500001q1.171875 -1.265625 2.953125 -1.265625q2.0 0 3.15625 1.328125q1.171875 1.3125 1.109375 4.046876l-5.953125 0q0.03125 1.0625 0.578125 1.65625q0.546875 0.578125 1.375 0.578125q0.546875 0 0.921875 -0.296875q0.390625 -0.3125 0.59375 -0.984375zm0.125 -2.40625q-0.015625 -1.031251 -0.53125 -1.562501q-0.5 -0.546875 -1.234375 -0.546875q-0.78125 0 -1.28125 0.578125q-0.515625 0.56250095 -0.5 1.531251l3.546875 0z" fill-rule="nonzero"/>
    </g>
</svg>